Coordinates
version=1
nRows=24
nColumns=38
inDegrees=no

Units are S.I. units (second, meters, Newtons, ...)
If the header above contains a line with 'inDegrees', this indicates whether rotational values are in degrees (yes) or radians (no).

endheader
time	pelvis_tilt	pelvis_list	pelvis_rotation	pelvis_tx	pelvis_ty	pelvis_tz	hip_flexion_r	hip_adduction_r	hip_rotation_r	knee_angle_r	ankle_angle_r	subtalar_angle_r	mtp_angle_r	hip_flexion_l	hip_adduction_l	hip_rotation_l	knee_angle_l	ankle_angle_l	subtalar_angle_l	mtp_angle_l	lumbar_extension	lumbar_bending	lumbar_rotation	arm_flex_r	arm_add_r	arm_rot_r	elbow_flex_r	pro_sup_r	wrist_flex_r	wrist_dev_r	arm_flex_l	arm_add_l	arm_rot_l	elbow_flex_l	pro_sup_l	wrist_flex_l	wrist_dev_l
0	2.46009	1.54263	2.29934	0.698226	1.83414	0.955151	0.0555553	-0.0929082	-0.233401	0.299323	0.134039	0	0	-0.0295153	0.0590094	-0.174865	0.164671	0.165353	0	0	-0.0319058	-0.0402954	0.0703981	-0.0111137	-0.093774	-0.0842378	0.358702	1.5708	0	0	-0.159082	-0.256662	0.4016	0.609041	0.955159	0	0
0.01	2.29712	1.54042	2.4643	0.700232	1.83284	0.95449	0.0713691	-0.103484	-0.225799	0.337187	0.142886	0	0	-0.0345798	0.0664298	-0.169863	0.16326	0.168551	0	0	-0.0333651	-0.0447456	0.0727789	-0.00870237	-0.0920101	-0.0875563	0.351563	1.5708	0	0	-0.160749	-0.259266	0.403052	0.61463	0.956362	0	0
0.02	2.14447	1.53712	2.61873	0.702247	1.83145	0.953787	0.0884007	-0.11444	-0.215875	0.37779	0.15078	0	0	-0.0392859	0.0744824	-0.16798	0.162939	0.172206	0	0	-0.0352285	-0.0498222	0.075327	-0.00655385	-0.090131	-0.0913602	0.345609	1.5708	0	0	-0.162461	-0.261999	0.404416	0.620221	0.956691	0	0
0.03	2.00778	1.5332	2.75905	0.7044	1.83018	0.95312	0.105906	-0.125373	-0.205831	0.420357	0.157129	0	0	-0.0441798	0.0827759	-0.164016	0.162772	0.175248	0	0	-0.0383195	-0.0550403	0.0757347	-0.00584413	-0.089196	-0.0892838	0.344709	1.5708	0	0	-0.163642	-0.264653	0.404968	0.625559	0.957157	0	0
0.04	1.79246	1.53114	2.97676	0.706681	1.82896	0.952498	0.119892	-0.134723	-0.194026	0.4652	0.162606	0	0	-0.0548431	0.0898624	-0.161931	0.161643	0.179311	0	0	-0.0483107	-0.0556369	0.0774458	0.0209853	-0.0808758	-0.153162	0.293075	1.5708	0	0	-0.162706	-0.264732	0.404723	0.62971	0.958749	0	0
0.05	1.70415	1.52711	3.06803	0.708551	1.82754	0.95193	0.139252	-0.142666	-0.179761	0.510469	0.164522	0	0	-0.0601941	0.0963717	-0.159832	0.161638	0.181888	0	0	-0.0519715	-0.0597946	0.0780578	0.0242506	-0.0785442	-0.160481	0.289189	1.5708	0	0	-0.163436	-0.26646	0.403003	0.632691	0.959775	0	0
0.06	1.6116	1.52411	-3.11951	0.710239	1.82599	0.951534	0.157571	-0.148144	-0.165643	0.554497	0.1637	0	0	-0.0665172	0.100912	-0.157572	0.162308	0.18483	0	0	-0.0566921	-0.0626831	0.0781382	0.0268916	-0.0765153	-0.163586	0.287967	1.5708	0	0	-0.163847	-0.267722	0.400849	0.634116	0.960664	0	0
0.07	1.53481	1.52143	-3.04008	0.711721	1.82433	0.951198	0.176677	-0.15227	-0.152198	0.597999	0.162361	0	0	-0.0724983	0.104471	-0.154962	0.163547	0.18805	0	0	-0.0608711	-0.0651185	0.0783452	0.0295842	-0.0740454	-0.167498	0.287001	1.5708	0	0	-0.164485	-0.268716	0.39757	0.634671	0.961752	0	0
0.08	1.47039	1.51952	-2.97243	0.713113	1.82256	0.95096	0.195227	-0.1549	-0.141182	0.638044	0.160249	0	0	-0.0783737	0.106609	-0.15239	0.164681	0.19141	0	0	-0.0644509	-0.0666802	0.0777602	0.0319269	-0.0712941	-0.172396	0.287212	1.5708	0	0	-0.165475	-0.269915	0.394298	0.634521	0.962883	0	0
0.09	1.42658	1.5182	-2.92444	0.714525	1.82072	0.950768	0.21385	-0.156858	-0.132809	0.67412	0.158315	0	0	-0.0835429	0.108111	-0.149175	0.165117	0.194305	0	0	-0.0669002	-0.0675738	0.0761778	0.0338569	-0.0684355	-0.178781	0.289072	1.5708	0	0	-0.166521	-0.270678	0.390459	0.633283	0.964295	0	0
0.1	1.38232	1.51773	-2.8744	0.71611	1.81875	0.950731	0.230539	-0.158224	-0.128211	0.70426	0.15669	0	0	-0.0889952	0.108652	-0.145649	0.164663	0.196249	0	0	-0.0691516	-0.0671745	0.0730802	0.0343812	-0.0662723	-0.18201	0.294544	1.5708	0	0	-0.167	-0.27027	0.386399	0.629597	0.966082	0	0
0.11	1.33179	1.51871	-2.8172	0.717694	1.81662	0.950819	0.245501	-0.157773	-0.125639	0.728635	0.156771	0	0	-0.0947511	0.10735	-0.141819	0.163654	0.197909	0	0	-0.0709668	-0.0649576	0.0690325	0.0335708	-0.0651439	-0.180378	0.303165	1.5708	0	0	-0.167556	-0.269277	0.382294	0.624467	0.967302	0	0
0.12	1.28051	1.52087	-2.75868	0.719217	1.81441	0.950997	0.259705	-0.155821	-0.124465	0.747511	0.158292	0	0	-0.0997642	0.104286	-0.138181	0.163229	0.199859	0	0	-0.0720666	-0.0615126	0.0644611	0.0315227	-0.0647792	-0.17493	0.31483	1.56729	0	0	-0.168178	-0.268092	0.378167	0.61882	0.966806	0	0
0.13	1.23842	1.52378	-2.70767	0.720791	1.81223	0.951204	0.273763	-0.153577	-0.125418	0.761203	0.160091	0	0	-0.102343	0.0999204	-0.135106	0.165487	0.202964	0	0	-0.0722633	-0.0575667	0.0582139	0.0287282	-0.0648369	-0.166337	0.328834	1.55829	0	0	-0.168669	-0.266975	0.374498	0.613357	0.964436	0	0
0.14	1.21287	1.52725	-2.67172	0.72241	1.8101	0.951379	0.288145	-0.151644	-0.128097	0.770008	0.161253	0	0	-0.102135	0.09482	-0.132964	0.170427	0.206916	0	0	-0.0714487	-0.0536142	0.0504391	0.0255894	-0.0652353	-0.157166	0.343737	1.55028	0	0	-0.16912	-0.265998	0.37117	0.607817	0.960858	0	0
0.15	1.13854	1.53069	-2.58844	0.723848	1.80767	0.951669	0.299659	-0.148301	-0.130311	0.773231	0.161411	0	0	-0.10535	0.0893374	-0.127169	0.172197	0.209442	0	0	-0.0719732	-0.0487477	0.0437467	0.0201963	-0.0679709	-0.134747	0.36391	1.52876	0	0	-0.170154	-0.264792	0.367654	0.602712	0.955013	0	0
0.16	0.994348	1.527	-2.43912	0.724854	1.80481	0.952868	0.303325	-0.148053	-0.129052	0.769847	0.160057	0	0	-0.124069	0.0883551	-0.0998495	0.150181	0.193047	0	0	-0.0792191	-0.0489356	0.0402948	0.0140085	-0.0713116	-0.102489	0.38873	1.49032	0	0	-0.170309	-0.264556	0.364699	0.597181	0.947652	0	0
0.17	0.928135	1.53599	-2.37035	0.726655	1.8016	0.952209	0.320832	-0.140131	-0.126535	0.766917	0.158743	0	0	-0.120785	0.0814947	-0.118032	0.162458	0.208698	0	0	-0.0712524	-0.0376882	0.0406877	0.00263526	-0.0790331	-0.0868666	0.416826	1.48301	0	0	-0.174228	-0.25926	0.362796	0.591057	0.944532	0	0
0.18	0.782629	1.53792	-2.20773	0.727965	1.79981	0.952466	0.32861	-0.137974	-0.135221	0.758116	0.155477	0	0	-0.118729	0.0723113	-0.111804	0.174568	0.215965	0	0	-0.0758356	-0.0333938	0.0245174	-0.0109932	-0.0945137	0.0108067	0.469531	1.34595	0	0	-0.174022	-0.261548	0.361908	0.590482	0.92785	0	0
0.19	0.67736	1.54031	-2.09927	0.729636	1.7966	0.952494	0.340191	-0.135264	-0.132602	0.747341	0.152423	0	0	-0.124208	0.0688469	-0.112873	0.171249	0.217327	0	0	-0.0739557	-0.0277285	0.0242685	-0.015868	-0.0999824	0.0203215	0.489774	1.33536	0	0	-0.175656	-0.257535	0.360419	0.584139	0.924408	0	0
0.2	0.510538	1.54032	-1.92352	0.730932	1.79376	0.952701	0.347303	-0.132513	-0.13468	0.73276	0.148875	0	0	-0.130117	0.0629266	-0.106508	0.170881	0.21956	0	0	-0.076871	-0.0231465	0.0181749	-0.0181318	-0.104603	0.037548	0.508673	1.30922	0	0	-0.17551	-0.256757	0.359994	0.580093	0.915584	0	0
0.21	0.360646	1.53911	-1.76478	0.732102	1.79076	0.95285	0.35376	-0.130173	-0.13617	0.716248	0.14622	0	0	-0.136729	0.0572431	-0.0998175	0.170061	0.221916	0	0	-0.0800485	-0.0193373	0.0124572	-0.0189068	-0.107286	0.0447579	0.52219	1.29895	0	0	-0.175429	-0.257025	0.361752	0.577205	0.90717	0	0
0.22	0.259461	1.53563	-1.64605	0.733141	1.78834	0.953116	0.356946	-0.131384	-0.144492	0.697894	0.144521	0	0	-0.140888	0.0504633	-0.0843757	0.175079	0.225707	0	0	-0.0875359	-0.0183154	-0.00169417	-0.0157929	-0.105395	0.0448132	0.531267	1.29985	0	0	-0.173516	-0.261824	0.366051	0.577772	0.897773	0	0
0.23	0.179352	1.53325	-1.55587	0.73451	1.78514	0.95312	0.362786	-0.132097	-0.147175	0.679183	0.143462	0	0	-0.14773	0.0462149	-0.0755051	0.173962	0.2276	0	0	-0.0910601	-0.0155663	-0.00764991	-0.0160996	-0.106785	0.0427713	0.541434	1.30456	0	0	-0.172323	-0.262178	0.370347	0.574078	0.890202	0	0
